<svg width="1283" height="1253" fill="none" xmlns="http://www.w3.org/2000/svg"><path d="M1043.55 721.48v384.23a75.65 75.65 0 0 1-75.65 75.66H617.82a75.66 75.66 0 0 1-75.67-75.66V721.48a75.2 75.2 0 0 1 11.5-40.13 75.57 75.57 0 0 1 64.17-35.54H967.9a75.62 75.62 0 0 1 75.65 75.67" fill="#fff"/><path d="M623.96 654.46c-40.35 0-73.16 32.82-73.16 73.16v371.93c0 40.34 32.82 73.16 73.16 73.16h337.78c40.34 0 73.16-32.82 73.16-73.16V727.62c0-40.34-32.82-73.16-73.16-73.16H623.96m337.78 535.56H623.96c-49.89 0-90.46-40.59-90.46-90.47V727.62c0-49.88 40.57-90.46 90.46-90.46h337.78c49.88 0 90.47 40.58 90.47 90.46v371.93c0 49.88-40.59 90.47-90.47 90.47" fill="#371A45"/><path d="M644.03 675.7s-177.56 48.85-203.88 456.13h415.34l-24.61-481.1-186.85 24.97" fill="#fff"/><path d="M543.76 1106.89h-44.33a22.5 22.5 0 0 0-22.13-18.48h-20.03v-.01h9.63l-.54-8.33c17.06-13.95 38.76-25.34 53.65-59.68a197.49 197.49 0 0 1 13.35-25.65h3.35a45.01 45.01 0 0 0 9.1 28.14 44.2 44.2 0 0 0 6.14 6.53 4683.73 4683.73 0 0 0-8.19 77.48" fill="#CDC6D0"/><path d="M449.41 1123.18h396.97l-23.66-462.63-176.84 23.64c-4.8 1.56-45.3 16.15-88.18 73.61-41.68 55.86-93.96 164.42-108.29 365.38Zm415.18 17.3H430.92l.6-9.21c13.73-212.52 69.32-326.9 113.53-385.45 48.9-64.72 94.75-77.93 96.69-78.46l1.14-.23 196.15-26.22 25.56 499.57Z" fill="#371A45"/><path d="M1183.22 1083.9c-26.6 56.31-79.57 15.24-79.57 15.24s-1.98 1.57-17.22 4.85c-86.73 18.72-143.9-31.85-143.9-31.85s-19.16 17.76-37.97 17.25c-16.15-.44-27.25-7.51-32.83-18.27-10.34-19.94-2.42-36.48 14.48-63.7 15.99-25.79 62.64-52.75 130.1-44.35v-.04c3.8-46.95-56.17-99.51-102.1-132.56-27.94-20.1-50.66-33-50.66-33l72.47-169.92c255.32 213.72 274.73 398.1 247.2 456.35Z" fill="#fff"/><path d="M1096.74 992.35c-.81-.6-17.61-13.06-46.57-22a42.24 42.24 0 0 0-25.08-17.38c-3.82-27.37-8.03-54.7-12.74-81.96-3.43-19.76-7.18-39.5-12.06-59.01 16.77 25.08 32.72 55.98 44.26 78 28.42 54.27 51.87 101.5 52.19 102.35M1142.96 1104.96c-17.31 0-33.83-12.51-34.01-12.65l-5.33-4.12-4.58 3.58c-1.13.43-4.85 1.69-14.43 3.76a171.11 171.11 0 0 1-42.7 3.78 1797.54 1797.54 0 0 0-3.36-34.35l-1.43-13.29a181.3 181.3 0 0 0 37.56-4.15c15.23-3.3 17.19-4.84 17.19-4.84s22.36 11.63 48.42 11.64c14.41 0 29.95-3.57 43.47-14.61-.7 17.37-3.9 31.06-8.36 40.5-6.32 13.38-14.69 21.41-24.87 23.88-2.51.6-5.05.87-7.57.87" fill="#CDC6D0"/><path d="M1143.06 1122.24c-17.55.01-33.34-8.69-40.57-13.37-3.01.94-7.48 2.12-14.23 3.58-74.99 16.18-128.47-16.6-145.64-29.22-7.91 5.93-22.89 15.32-38.29 14.81-18.57-.51-32.87-8.66-40.28-22.93-12.72-24.53-2.4-44.54 14.8-72.27 17.34-27.92 64.5-54.3 128.69-49.35-6.19-56.06-107.57-125.4-148.26-148.49a8.65 8.65 0 0 1 8.54-15.05c6.68 3.79 163.64 93.73 157.12 173.81l-.74 9-8.96-1.11c-61.65-7.66-106.3 15.53-121.69 40.32-17.18 27.7-21.9 40.2-14.14 55.17 4.44 8.56 13.23 13.27 25.4 13.6 12.47.35 27.2-10.68 31.85-14.95l5.75-5.3 5.86 5.17c.52.46 55.2 47.37 136.34 29.87 9.58-2.07 13.3-3.33 14.43-3.76l4.59-3.58 5.32 4.12c.19.16 21.87 16.55 41.58 11.77 10.18-2.46 18.55-10.49 24.87-23.87 12.28-26 15.02-84.24-17.69-162.86-27.08-65.07-88.49-167.02-227.24-283.17a8.64 8.64 0 1 1 11.1-13.27c141.44 118.4 204.3 222.94 232.11 289.8 34.85 83.75 31.83 146.29 17.37 176.89-8.69 18.38-20.99 29.6-36.55 33.33a49.12 49.12 0 0 1-11.44 1.31" fill="#371A45"/><path d="M600.33 776.56c-34.68 153.7-52.94 386.58-52.94 386.58h490.93s-18.26-232.89-52.94-386.58c0 0-82.6-162.09-192.52-162.09-109.94 0-192.53 162.09-192.53 162.09" fill="#fff"/><path d="M1023.89 1106.89H561.15a4881.38 4881.38 0 0 1 7.22-68.74c1.85.5 3.76.87 5.69 1.12 14.77 1.85 32.01 3.34 49.37 3.34 8.46 0 16.95-.35 25.19-1.19v1.75a45.91 45.91 0 0 0 45.86 45.86h191.57a45.91 45.91 0 0 0 45.87-45.86v-3.74c12.43 2.29 25.89 3.18 39.28 3.18 15.83 0 31.57-1.24 45.42-2.87 1.03 9.08 2.04 18.15 3.01 27.23l4.26 39.92Z" fill="#CDC6D0"/><path d="M608.77 778.46c-6.99 31.54-12.85 63.4-18.16 95.38-5.22 32-9.78 64.12-14.02 96.3a4314.88 4314.88 0 0 0-11.37 96.74 4096.84 4096.84 0 0 0-9.2 96.94l-8.63-9.33h490.92l-8.62 9.33-4.88-48.42-5.18-48.43a5585.29 5585.29 0 0 0-11.37-96.72c-2.09-16.08-4.09-32.19-6.39-48.24-2.13-16.09-4.55-32.11-6.95-48.15-5.09-32.02-10.4-63.9-13.76-96.35l-.01-.03a4.36 4.36 0 0 1 8.45-1.87c10.72 31.09 17.17 63.23 22.74 95.4a2621.3 2621.3 0 0 1 14.79 96.79c4.36 32.33 7.95 64.75 11.42 97.16 1.76 16.21 3.21 32.45 4.61 48.69a1919 1919 0 0 1 3.78 48.82l.59 9.32H537.99l.77-9.32c2.67-32.59 5.83-64.98 9.26-97.42 3.45-32.41 7.22-64.8 11.4-97.14 4.27-32.33 8.86-64.64 14.12-96.87 5.35-32.22 11.25-64.38 18.35-96.38a8.66 8.66 0 0 1 16.9 3.74l-.02.06" fill="#371A45"/><path d="M682.91 1024.7c-29.9 12.58-76.2 9.95-107.76 5.98-18.93-2.38-32.22-20.52-29.43-40.1 2.54-17.88 17.7-30.88 35.07-30.04 29.53 1.44 73.8 2.11 101.84-4.35l.28 68.51" fill="#fff"/><path d="M623.2 1025.28c-14.24 0-30.03-1.05-46.98-3.18a24.8 24.8 0 0 1-16.65-9.72 27.2 27.2 0 0 1-5.55-17.64h12.22a33.1 33.1 0 0 0 8.9 2.42c14.1 1.77 31.16 3.28 48.39 3.28 8.44 0 16.9-.36 25.1-1.23v24.78c-7.79.86-16.3 1.29-25.43 1.29" fill="#CDC6D0"/><path d="M682.91 1024.7h.02-.02Zm-103.73-55.54c-12.44 0-23.03 9.53-24.9 22.63a27.3 27.3 0 0 0 5.3 20.59 24.78 24.78 0 0 0 16.64 9.72c44.96 5.65 81.66 3.74 103.34-5.37 4.1-1.72 7.13-7.7 8.32-16.39 2.19-15.83-2.29-31.05-5.33-35.26-28.55 6.1-71.13 5.62-102.18 4.1l-1.19-.02m44.25 73.45c-17.36 0-34.6-1.49-49.37-3.34a41.9 41.9 0 0 1-28.24-16.39 45.04 45.04 0 0 1-8.67-33.53c3.2-22.41 22.05-38.49 44.07-37.45 43.38 2.12 78.71.65 99.47-4.14 4.27-.97 14.88-1.14 21.23 18.53 7.13 22.08 5.65 57.43-15.65 66.39-17.68 7.43-40.35 9.93-62.84 9.93" fill="#371A45"/><path d="M911.72 1024.7c29.91 12.58 76.2 9.95 107.77 5.98 18.93-2.38 32.22-20.52 29.43-40.1-2.55-17.88-17.69-30.88-35.08-30.04-29.52 1.44-73.8 2.11-101.84-4.35l-.28 68.51Z" fill="#fff"/><path d="M971.43 1025.29c-15.02 0-28.33-1.18-39.5-3.51v-24.6c12.28 2.41 25.77 3.33 39.17 3.33 17.22 0 34.28-1.51 48.4-3.28a33.28 33.28 0 0 0 19.81-10c.47 1.46.82 2.98 1.04 4.56a27.28 27.28 0 0 1-5.29 20.59 24.77 24.77 0 0 1-16.65 9.72 380.23 380.23 0 0 1-46.98 3.19" fill="#B9AFBE"/><path d="M915.07 1016.73c21.69 9.11 58.38 11.02 103.34 5.37a24.77 24.77 0 0 0 16.65-9.72 27.34 27.34 0 0 0 5.3-20.6c-1.93-13.5-13.17-23.23-26.09-22.6-31.05 1.52-73.63 2-102.18-4.1-3.05 4.21-7.52 19.43-5.34 35.26 1.2 8.69 4.24 14.67 8.32 16.39m56.14 25.87c-22.5 0-45.16-2.49-62.84-9.92-21.3-8.96-22.78-44.31-15.65-66.4 6.35-19.66 16.95-19.5 21.22-18.52 20.76 4.78 56.08 6.25 99.48 4.14 22-1.05 40.88 15.04 44.07 37.45a45.18 45.18 0 0 1-8.67 33.53 41.96 41.96 0 0 1-28.25 16.39c-14.76 1.85-32.01 3.33-49.36 3.33" fill="#371A45"/><path d="M923.28 933.55v109.8c0 20.37-16.05 37.04-35.65 37.04h-194.7c-19.62 0-35.64-16.67-35.64-37.04v-109.8c0-20.35 16.02-37.02 35.64-37.02h194.7c15.66 0 29.05 10.64 33.81 25.3a38.47 38.47 0 0 1 1.84 11.72" fill="#fff"/><path d="M886.06 1071.73h-105.3v-32.2a155.1 155.1 0 0 0 43.45-8.76c7.9-2.83 16.09-7.33 23.95-12.52a29.68 29.68 0 0 0 11.09 2.14c14.9 0 27.31-11.01 30.14-25.62v.03a33.06 33.06 0 0 0 .26-11.11c2.93-2.92 4.59-4.7 4.59-4.7s1.42 41.4 7.31 41.4h.14c6.4-.71 10.34-13.65 12.93-30v52.78a28.6 28.6 0 0 1-28.56 28.56m-122.6 0H694.5a28.6 28.6 0 0 1-28.57-28.56v-32.01c23.65 12.52 58.66 26.8 97.54 28.48v32.09" fill="#CDC6D0"/><path d="M694.49 905.18a28.59 28.59 0 0 0-28.57 28.56v109.43a28.59 28.59 0 0 0 28.57 28.56h191.57a28.6 28.6 0 0 0 28.56-28.56V933.74a28.6 28.6 0 0 0-28.56-28.56H694.5Zm191.57 183.85H694.5a45.9 45.9 0 0 1-45.87-45.86V933.74a45.91 45.91 0 0 1 45.87-45.87h191.57a45.91 45.91 0 0 1 45.86 45.87v109.43a45.9 45.9 0 0 1-45.86 45.86" fill="#371A45"/><path d="M890 988.45c0 17.64-13.77 31.93-30.75 31.93s-30.74-14.29-30.74-31.93c0-17.63 13.76-31.93 30.74-31.93 16.98 0 30.74 14.3 30.74 31.93Z" fill="#22A7F0"/><path d="M890 988.46c0 2.18-.2 4.3-.6 6.34-2.84-14.62-15.27-25.63-30.15-25.63-14.9 0-27.32 11-30.14 25.63a32.6 32.6 0 0 1-.6-6.34c0-17.63 13.76-31.94 30.74-31.94 16.98 0 30.75 14.3 30.75 31.94Z" fill="#fff"/><path d="M859.24 1020.38c-14.88 0-27.3-10.98-30.14-25.58a32.74 32.74 0 0 1 2.94-8.58c5.16 10.13 15.43 17.03 27.2 17.03 11.8 0 22.04-6.9 27.2-17.03a32.78 32.78 0 0 1 2.95 8.55c-2.83 14.61-15.26 25.61-30.15 25.61Zm-30.68-30.07a33.16 33.16 0 0 1 1.06-10.4 33.01 33.01 0 0 0-1.06 10.4Z" fill="#2976B4"/><path d="M829.11 994.8a33.17 33.17 0 0 1 .51-14.9c.6 2.21 1.42 4.33 2.43 6.32a32.7 32.7 0 0 0-2.94 8.57m60.28-.02c-.59-3.03-1.6-5.9-2.94-8.55a32.7 32.7 0 0 0 2.43-6.32 33.45 33.45 0 0 1 .51 14.87" fill="#B9AFBE"/><path d="M859.25 963.01c-13.38 0-24.26 11.42-24.26 25.44 0 14.03 10.88 25.44 24.26 25.44 13.37 0 24.25-11.41 24.25-25.44 0-14.02-10.88-25.44-24.25-25.44Zm0 63.86c-20.53 0-37.24-17.23-37.24-38.42 0-21.18 16.7-38.41 37.24-38.41 20.52 0 37.23 17.23 37.23 38.41 0 21.19-16.7 38.42-37.23 38.42M772.11 1089.03a8.65 8.65 0 0 1-8.64-8.65v-56.19c0-11.2-5.11-21.88-13.68-28.57l-4.94-3.87c-12.73-9.95-20.32-25.72-20.32-42.2v-53.02a8.65 8.65 0 1 1 17.3 0v53.02c0 11.2 5.11 21.88 13.68 28.57l4.94 3.87c12.72 9.94 20.32 25.72 20.32 42.2v56.19a8.65 8.65 0 0 1-8.66 8.65" fill="#371A45"/><path d="M1023.75 696.57a1038.15 1038.15 0 0 0-23.58-23.28c1.86-1.36 3.7-2.74 5.53-4.12a73.51 73.51 0 0 1 20.94 24.69l-2.89 2.7" fill="#CDC6D0"/><path d="M1026.63 693.86a73.53 73.53 0 0 0-20.93-24.69c3.05-2.32 6.07-4.69 9.06-7.1a76.04 76.04 0 0 1 19.95 23.87 359.07 359.07 0 0 1-8.08 7.92" fill="#371A45"/><path d="M964.2 740.99a480.98 480.98 0 0 0-23.26-32.46 363.6 363.6 0 0 0 44.73-25.16c8.76 8.32 17.12 16.54 25.1 24.66A342.32 342.32 0 0 1 964.19 741Z" fill="#CDC6D0"/><path d="M1010.77 708.03a1052.76 1052.76 0 0 0-25.1-24.67c4.92-3.24 9.74-6.6 14.51-10.07 8.2 7.84 16.04 15.6 23.57 23.27a332.23 332.23 0 0 1-12.98 11.47" fill="#371A45"/><path d="M796.07 786.97a330.38 330.38 0 0 1-54.24-4.45v-43.95a344.33 344.33 0 0 0 50.16 3.68c52.26 0 102.92-11.96 148.95-33.72 9 11.5 16.8 22.64 23.26 32.46a330.17 330.17 0 0 1-168.13 45.98Z" fill="#CDC6D0"/><path d="M1119.33 521.1a7.14 7.14 0 0 1-6.21-8.03l23.92-210.31c.46-4.03 3.99-6.97 7.87-6.56 40.8 4.31 69.99 42.1 65.18 84.4l-8.16 71.71c-4.82 42.3-41.8 73.11-82.6 68.8" fill="#fff"/><path d="M1144.19 297.72a5.76 5.76 0 0 0-5.6 5.22l-23.92 210.3a5.79 5.79 0 0 0 1.22 4.34 5.3 5.3 0 0 0 3.6 1.99c39.9 4.2 76.19-26.04 80.89-67.43l8.16-71.72c2.34-20.58-3.34-40.61-16.02-56.4a70.38 70.38 0 0 0-47.77-26.27 5.99 5.99 0 0 0-.56-.03m-17.28 225.35c-2.56 0-5.14-.14-7.74-.41a8.34 8.34 0 0 1-5.7-3.14 8.88 8.88 0 0 1-1.9-6.63l23.93-210.3c.55-4.88 4.87-8.43 9.58-7.93a73.5 73.5 0 0 1 49.87 27.42c13.19 16.44 19.11 37.29 16.68 58.69l-8.16 71.72c-4.59 40.39-38.11 70.58-76.56 70.58" fill="#371A45"/><path d="M1126.92 512.86c-.46 0-.94 0-1.42-.02a380.77 380.77 0 0 0 16.54-49.9c20.89-1.24 39.96-11.51 53.09-27.42l-1.8 15.8c-4 35.21-33.11 61.54-66.41 61.54" fill="#CDC6D0"/><path d="M1121.87 512.66c35.35 2.83 67.26-24.35 71.45-61.32l8.16-71.72c2.13-18.68-3.02-36.86-14.49-51.16a63.42 63.42 0 0 0-41.5-23.48l-23.62 207.68m5.04 17.5c-2.81 0-5.64-.13-8.49-.44a15.43 15.43 0 0 1-10.5-5.75 15.93 15.93 0 0 1-3.4-11.88l23.91-210.3c1.01-8.73 8.78-15.1 17.39-14.19 21.53 2.27 40.94 12.94 54.67 30.04 14.38 17.92 20.84 40.64 18.19 63.94l-8.16 71.71c-5.01 44-41.62 76.87-83.61 76.87" fill="#371A45"/><path d="M475.3 225.52a7.15 7.15 0 0 1 6.22 8.04L457.6 443.88c-.46 4.03-3.99 6.97-7.87 6.56-40.81-4.31-70-42.1-65.18-84.4l8.16-71.72c4.81-42.3 41.8-73.1 82.6-68.8" fill="#fff"/><path d="M467.72 226.68c-36.88 0-69.06 29-73.47 67.82l-8.16 71.72c-2.34 20.58 3.35 40.6 16.02 56.39a70.4 70.4 0 0 0 47.77 26.28 5.73 5.73 0 0 0 6.17-5.19l23.92-210.3a5.8 5.8 0 0 0-1.22-4.34 5.3 5.3 0 0 0-3.6-1.99c-2.5-.26-4.97-.39-7.43-.39m-17.27 225.35c-.3 0-.59-.02-.89-.05a73.5 73.5 0 0 1-49.88-27.42c-13.19-16.44-19.1-37.29-16.67-58.7l8.15-71.7c4.9-43.1 42.74-74.57 84.3-70.18a8.39 8.39 0 0 1 5.71 3.13 8.92 8.92 0 0 1 1.9 6.64l-23.93 210.3a8.9 8.9 0 0 1-8.7 7.98" fill="#371A45"/><path d="M445.46 441.06a63.42 63.42 0 0 1-37.81-22.9c-11.48-14.3-16.63-32.45-14.5-51.14l1.75-15.4c9.84 17 26.03 29.8 45.64 34.62.3 18.47 1.95 36.79 4.92 54.82Z" fill="#CDC6D0"/><path d="M467.72 233.78c-33.33 0-62.41 26.32-66.42 61.52l-8.15 71.72c-2.13 18.68 3.02 36.85 14.5 51.16a63.38 63.38 0 0 0 41.5 23.47l23.62-207.68a64.2 64.2 0 0 0-5.05-.2m-17.27 225.36c-.54 0-1.09-.03-1.63-.1A80.53 80.53 0 0 1 394.14 429c-14.38-17.92-20.84-40.64-18.2-63.94l8.16-71.72c5.34-46.93 46.63-81.24 92.1-76.42 4.15.44 7.88 2.48 10.5 5.75a15.95 15.95 0 0 1 3.4 11.88l-23.91 210.3a16.02 16.02 0 0 1-15.75 14.28" fill="#371A45"/><path d="M1139.3 435.14c-36 196-218.27 327.22-407.12 293.07-188.85-34.13-312.75-220.7-276.75-416.7S673.7-15.7 862.53 18.43c188.86 34.14 312.76 220.7 276.77 416.7" fill="#fff"/><path d="M802.72 14.61c-165.2 0-313.79 123.06-345.77 297.18-17.8 96.92 2.65 194.03 57.57 273.44 52.04 75.22 129.43 125.46 217.93 141.46 187.7 33.93 369.52-96.98 405.31-291.83 17.8-96.92-2.64-194.03-57.57-273.43C1028.15 86.2 950.76 35.96 862.26 19.97a334.57 334.57 0 0 0-59.54-5.36m-10.73 720.54c-19.86 0-39.93-1.76-60.1-5.4C642.59 713.6 564.49 662.91 511.98 587c-55.4-80.1-76.03-178.03-58.08-275.77C490 114.7 673.42-17.32 862.82 16.91c89.32 16.15 167.42 66.84 219.92 142.75 55.41 80.09 76.03 178.02 58.08 275.76-32.25 175.61-182.17 299.73-348.83 299.73" fill="#371A45"/><path d="M792 724.94c-16.58 0-33.35-1.27-50.16-3.87v-27.53a461.3 461.3 0 0 0 70.36 5.37c50.41 0 93.32-8.12 123.97-16.38a427.93 427.93 0 0 0 37.56-12c-53.62 34.72-116.36 54.41-181.73 54.41Z" fill="#B9AFBE"/><path d="M802.72 21.7c-161.85 0-307.43 120.66-338.78 291.37-17.46 95.06 2.58 190.28 56.42 268.12 50.96 73.66 126.73 122.85 213.36 138.51a327.31 327.31 0 0 0 58.27 5.24c161.86.01 307.44-120.65 338.79-291.36 17.46-95.06-2.58-190.28-56.42-268.12C1023.4 91.8 947.64 42.6 861 26.94a328.16 328.16 0 0 0-58.28-5.23ZM792 742.26c-20.27 0-40.77-1.8-61.35-5.52-91.19-16.49-170.92-68.23-224.5-145.7-56.49-81.65-77.51-181.48-59.22-281.09C483.72 109.58 670.84-25 864.08 9.92 955.28 26.4 1035 78.15 1088.6 155.61c56.48 81.66 77.51 181.49 59.21 281.09-32.88 179.03-185.78 305.55-355.81 305.55" fill="#371A45"/><path d="M1136.53 444.05c-11.75 69.63-44.43 130.68-90.7 178.03-34.69 35.5-161.32 86.76-303.3 64.75-131.64-20.41-238.97-112.82-260.13-157.51a330.89 330.89 0 0 1-27.37-197.46c31.08-184.24 196.51-235.5 384.7-204.52 188.2 30.98 327.87 132.48 296.8 316.71" fill="#371A45"/><path d="M741.9 125.66c-57.6 0-108.67 9.85-150.6 29.34-71.72 33.35-115.33 93.23-129.63 177.99a323.97 323.97 0 0 0 26.81 193.44c20.37 43.02 125.93 133.71 255.08 153.74 143.1 22.2 266.22-30.85 297.45-62.8 47-48.1 77.74-108.42 88.87-174.43 11.51-68.26-.43-127.77-35.51-176.87-47.65-66.7-136.08-112.38-255.73-132.07-33.83-5.58-66.2-8.34-96.74-8.34m70.3 573.25c-22.25 0-45.95-1.58-70.7-5.42-75.21-11.66-136.28-44.9-174.26-70.74-43.07-29.28-78.76-64.82-90.94-90.55a337.4 337.4 0 0 1-27.92-201.46c15.08-89.39 61.25-152.62 137.24-187.95 66.6-30.97 154.86-38.61 255.2-22.1 123.28 20.3 214.74 67.86 264.52 137.55 37.23 52.12 49.96 115.02 37.83 186.94-11.6 68.74-43.59 131.54-92.52 181.61-20.34 20.81-64.2 42.17-114.48 55.74A479.38 479.38 0 0 1 812.2 698.9" fill="#371A45"/><path d="M1019.72 462.89a31.9 31.9 0 0 1-10.98-1.92c-23.14-8.43-32.38-42.2-20.63-75.43 9.94-28.11 31.7-46.84 52.18-46.84 3.73 0 7.42.62 10.98 1.92 18.7 6.81 28.32 30.18 25.12 56.43a419.75 419.75 0 0 1-17.88 43.63c-10.92 13.88-25.14 22.2-38.79 22.2M951.54 545.1c-3.37 0-6.7-.78-9.77-2.43-11.81-6.34-15.42-23.13-8.06-37.51 5.45-10.63 15.38-16.96 24.96-16.96 3.38 0 6.7.78 9.77 2.44 11.81 6.33 15.42 23.13 8.06 37.5-5.45 10.63-15.38 16.96-24.96 16.96Z" fill="#9B8DA2"/><path d="M812.4 685.44c-22.19 0-45.25-1.61-68.84-5.27l-1.72-.27v-39.13c114.77-11.5 205.44-53.79 236.82-85.91a425.23 425.23 0 0 0 79.86-114.18 87 87 0 0 0 13.38-24.63 89.88 89.88 0 0 0 4.49-19 423.36 423.36 0 0 0 17.37-68.13 386.03 386.03 0 0 0 5.42-55.83c31.35 47.7 41.67 104.8 30.7 169.84-11.13 66.02-41.86 126.34-88.87 174.43-26.07 26.7-116.23 68.09-228.61 68.08" fill="#2A1A3B"/><path d="M812.06 692.14a454.49 454.49 0 0 1-70.22-5.41v-6.83c.57.1 1.15.18 1.73.27a449.4 449.4 0 0 0 68.83 5.27c112.38 0 202.53-41.39 228.61-68.08 47.01-48.09 77.74-108.41 88.87-174.43 10.98-65.04.65-122.14-30.7-169.85.1-3.98.11-7.9.07-11.81 34.69 48.1 49.75 108.77 37.28 182.78-11.75 69.63-44.44 130.67-90.68 178.03-28.91 29.56-121.59 70.06-233.8 70.06" fill="#2A1A3B"/><path d="M1058.51 440.69a420.79 420.79 0 0 0 17.88-43.63 89.9 89.9 0 0 1-4.5 19 86.43 86.43 0 0 1-13.38 24.63Z" fill="#6B6577"/><path d="M1134.44 286.3a8.57 8.57 0 0 1-6.66-3.15l-.16-.2-.61-.78-.42-.9c-43.61-93.6-147.1-160.2-283.93-182.73-137.6-22.65-257.55 8.8-329.06 86.27l-.53.53a8.69 8.69 0 0 1-12.19-.49 8.62 8.62 0 0 1 .17-11.95C576.59 91.2 702.1 57.86 845.47 81.46c142.47 23.47 250.61 93.56 296.72 192.33a8.68 8.68 0 0 1-7.75 12.51Z" fill="#371A45"/><path d="M513.07 454.07s-24.34-190.81 82.27-247.7c54.59-29.12 116.82-37.4 163.91-37.4 44.91 0 76.07 7.52 73.78 11.68 0 0-156.73 13.02-236.36 126.67-61.4 87.64-83.6 146.75-83.6 146.75Z" fill="#9B8DA2"/><path d="M1279.99 1116.01c0 64.77-262.88 136.6-638.53 136.6-375.64 0-638.55-71.83-638.55-136.6H1280Z" fill="#371A45"/><path d="M2.91 1112.97c26.6-4.69 53.21-5.93 79.82-6.43 26.6-.65 53.21-.31 79.82.05l39.9.28 39.91.02H1120.36l39.91-.01c13.3.01 26.6-.41 39.9-.6 13.31-.2 26.61.1 39.92.87 6.65.43 13.3 1.04 19.95 1.99a165.1 165.1 0 0 1 19.96 3.83 3.13 3.13 0 0 1 2.21 3.85 3.13 3.13 0 0 1-2.21 2.23 165.05 165.05 0 0 1-19.96 3.82c-6.65.96-13.3 1.56-19.95 2a553.91 553.91 0 0 1-39.92.87c-13.3-.19-26.6-.61-39.9-.6l-39.91-.01h-878l-39.9.01-39.91.29c-26.6.35-53.22.7-79.82.05-26.6-.5-53.21-1.75-79.82-6.43a3.1 3.1 0 0 1 0-6.08" fill="#371A45"/><path d="M1016.31 963.07c-67.46-8.4-114.11 18.57-130.1 44.34-16.9 27.23-24.82 43.77-14.48 63.72 5.57 10.74 16.68 17.82 32.83 18.26 18.82.52 37.97-17.25 37.97-17.25s57.17 50.57 143.91 31.85c15.23-3.29 17.21-4.84 17.21-4.84l8.5-39.4s11.81-51.05-29.09-75.44c-34.26-20.43-66.75-21.24-66.75-21.24Z" fill="#fff"/><path d="M1098.32 1092.33v.01-.01Zm-50.58 24.51c-53.59 0-91.23-23.4-105.12-33.61-7.92 5.93-22.88 15.32-38.3 14.81-18.56-.51-32.87-8.66-40.27-22.93-12.72-24.53-2.4-44.54 14.8-72.27 18.22-29.32 69.33-56.96 138.53-48.36a8.65 8.65 0 1 1-2.14 17.17c-61.65-7.66-106.3 15.53-121.68 40.32-17.19 27.7-21.91 40.2-14.15 55.17 4.44 8.57 13.22 13.27 25.39 13.6 12.48.35 27.22-10.68 31.86-14.95l5.75-5.3 5.85 5.17c.54.46 55.2 47.37 136.36 29.87 10.61-2.29 14.04-3.59 14.71-3.88a8.65 8.65 0 0 1 9.65 14.32c-1.15.9-3.54 2.77-20.71 6.47a191.22 191.22 0 0 1-40.53 4.4" fill="#371A45"/><path d="M1016.78 954.43a72.61 72.61 0 0 1 7.35.5c2.35.27 4.63.63 6.93 1.03a147.27 147.27 0 0 1 26.55 7.56c2.14.86 4.28 1.68 6.38 2.58l6.23 2.9c8.21 4.03 16.19 8.5 23.62 13.76 3.79 2.49 7.33 5.37 10.87 8.18 3.51 2.86 6.81 5.96 10.12 9.01a4.35 4.35 0 0 1-5.04 6.98l-.32-.18c-3.8-2.09-7.36-4.48-11.14-6.5-3.81-1.99-7.47-4.15-11.34-5.95-7.55-3.89-15.41-7.08-23.26-10.1a249.76 249.76 0 0 0-23.99-7.46c-4.03-1.1-8.09-1.99-12.13-2.87-2.02-.38-4.04-.87-6.05-1.18-1-.2-2-.38-2.98-.53l-2.74-.45-.74-.13a8.64 8.64 0 0 1 1.68-17.16M933.87 1067.61a136.68 136.68 0 0 1 8.58-36.28 100.48 100.48 0 0 1 8.55-16.55 67.68 67.68 0 0 1 12.51-13.94 3.42 3.42 0 0 1 4.75 4.88l-.13.15a59.52 59.52 0 0 0-8.92 13.58 88.77 88.77 0 0 0-5.26 15.55 120.34 120.34 0 0 0-2.93 24.64 84.7 84.7 0 0 0 .16 7.97 8.68 8.68 0 1 1-17.3 0ZM1095.03 1098.35a212.74 212.74 0 0 1 7.6-28 99.95 99.95 0 0 1 5.85-13.53 43.45 43.45 0 0 1 4.18-6.48c1.67-2.06 3.64-4.13 6.42-5.53a3.13 3.13 0 0 1 3.42 5.18l-.28.23c-2.46 2.05-4.22 6.11-5.45 10.14a90.62 90.62 0 0 0-2.71 12.87 174.4 174.4 0 0 0-1.36 13.37c-.29 4.45-.46 9.09-.43 13.36a8.7 8.7 0 1 1-17.24-1.61" fill="#371A45"/><path d="M1111.17 1116.01H705.49v-35.77h405.68v35.77Z" fill="#D8D8D8"/><path d="M714.15 1107.36h388.37v-18.48H714.15v18.48Zm397.03 17.3H705.5a8.66 8.66 0 0 1-8.65-8.65v-35.78a8.65 8.65 0 0 1 8.65-8.65h405.68a8.65 8.65 0 0 1 8.65 8.65v35.78a8.66 8.66 0 0 1-8.65 8.65" fill="#371A45"/><path d="M691.64 986.09H100.35a41.54 41.54 0 0 1-41.54-41.54v-382.5a41.54 41.54 0 0 1 41.54-41.54h591.29a41.54 41.54 0 0 1 41.54 41.54v382.5a41.53 41.53 0 0 1-41.54 41.54" fill="#D8D8D8"/><path d="M691.64 977.44H459.68l-.73-11.35h235.82c10.13 0 18.4-8.26 18.4-18.42V558.93c0-10.16-8.27-18.4-18.4-18.4H97.22a18.42 18.42 0 0 0-18.4 18.4v388.74a18.43 18.43 0 0 0 18.4 18.42h235.83l-.74 11.35H100.35a32.93 32.93 0 0 1-32.89-32.9V562.06a32.93 32.93 0 0 1 32.9-32.88h591.28a32.93 32.93 0 0 1 32.89 32.88v382.5a32.93 32.93 0 0 1-32.89 32.89Z" fill="#F3F3F3"/><path d="M713.17 558.93v388.74a18.43 18.43 0 0 1-18.4 18.42H97.22a18.43 18.43 0 0 1-18.4-18.42V558.93c0-10.17 8.26-18.4 18.4-18.4h597.55c10.14 0 18.4 8.23 18.4 18.4Z" fill="#D8D8D8"/><path d="M694.77 966.09H458.95l-7.93-121.91c101.12-60.87 200.54-151.35 262.15-285.25v388.74a18.43 18.43 0 0 1-18.4 18.42Zm-361.72 0H97.22s109.23-10.34 240.04-64.7l-4.2 64.7Z" fill="#B0A8B3"/><path d="M100.35 529.16a32.93 32.93 0 0 0-32.88 32.88v382.5a32.93 32.93 0 0 0 32.88 32.9h591.3a32.93 32.93 0 0 0 32.88-32.9v-382.5a32.93 32.93 0 0 0-32.89-32.88H100.35Zm591.3 465.58h-591.3a50.25 50.25 0 0 1-50.19-50.2v-382.5a50.25 50.25 0 0 1 50.2-50.18h591.28a50.25 50.25 0 0 1 50.2 50.18v382.5a50.25 50.25 0 0 1-50.2 50.2" fill="#371A45"/><path d="M494.7 1116.01H297.3a5.1 5.1 0 0 1-5.1-5.1 22.5 22.5 0 0 1 22.5-22.5h162.6a22.5 22.5 0 0 1 22.5 22.5 5.1 5.1 0 0 1-5.1 5.1" fill="#D8D8D8"/><path d="M494.7 1116.01H297.3a5.1 5.1 0 0 1-5.1-5.1 22.5 22.5 0 0 1 22.5-22.5h162.6a22.5 22.5 0 0 1 22.5 22.5 5.1 5.1 0 0 1-5.1 5.1" fill="#B0A8B3"/><path d="M396 905.5a29.57 29.57 0 1 1 0-59.13 29.57 29.57 0 0 1 0 59.13Zm53.86-79.13a21.32 21.32 0 0 0-21.28-19.94H363.4a21.33 21.33 0 0 0-21.29 19.94L325.1 1088.4h141.8l-17.04-262.03" fill="#D8D8D8"/><path d="M466.9 1088.4H325.1l17.02-262.03a21.33 21.33 0 0 1 21.29-19.94h65.17a21.32 21.32 0 0 1 21.28 19.94l17.04 262.03Z" fill="#D8D8D8"/><path d="M466.9 1088.4H325.1l17.02-262.03a21.33 21.33 0 0 1 21.29-19.94h65.17a21.32 21.32 0 0 1 21.28 19.94l17.04 262.03Zm-14.94-14-9.54-146.71-6.54-100.41a7.32 7.32 0 0 0-7.3-6.85H363.4c-3.86 0-7.06 3-7.3 6.85l-15.42 237.24-.64 9.88h111.9" fill="#F3F3F3"/><path d="M451.96 1074.4H340.05l.64-9.88 15.42-237.25a7.31 7.31 0 0 1 7.3-6.84h65.17c3.86 0 7.06 3 7.3 6.85l6.54 100.4 9.54 146.72" fill="#D8D8D8"/><path d="M396 858.04c-9.88 0-17.9 8.03-17.9 17.9s8.02 17.9 17.9 17.9c9.87 0 17.9-8.03 17.9-17.9s-8.03-17.9-17.9-17.9Zm0 50.6a32.74 32.74 0 0 1-32.71-32.7 32.74 32.74 0 0 1 32.7-32.7 32.74 32.74 0 0 1 32.71 32.7 32.74 32.74 0 0 1-32.7 32.7Z" fill="#371A45"/><path d="M451.96 1074.4H340.05l.64-9.88c28.24-16.9 79.85-57.42 101.73-136.83l9.54 146.71" fill="#B0A8B3"/><path d="M334.34 1079.75h123.33l-16.44-252.82a12.7 12.7 0 0 0-12.65-11.85h-65.16c-6.68 0-12.23 5.2-12.66 11.85l-16.42 252.82Zm132.56 17.3H325.1a8.63 8.63 0 0 1-8.63-9.21l17.03-262.03a30.03 30.03 0 0 1 29.92-28.03h65.16a30.03 30.03 0 0 1 29.92 28.03l17.04 262.03a8.65 8.65 0 0 1-8.64 9.21" fill="#371A45"/><path d="M136.26 1145.12c1.51-.3 3.05-.53 4.54-.9 2.03-.52 2.47-1.1 2.7-3.19l.45-4.19c.02-.11.2-.2.43-.44.29 1.41.52 2.74.84 4.03.57 2.4 1.25 2.97 3.79 3.12 1.4.09 2.8.07 4.27.47-1.44.41-2.89.81-4.33 1.23-2.53.74-2.86 1.15-3 3.82-.03.7 0 1.41-.01 2.11a2.75 2.75 0 0 1-.51 1.67c-.46-1.58-.93-3.17-1.36-4.77-.33-1.23-1.08-1.94-2.36-2.04-1.8-.16-3.61-.3-5.42-.45l-.03-.47M482.88 1143.06c1.54.08 3.09.21 4.63.21 2.1-.02 2.66-.48 3.38-2.46.48-1.31.94-2.64 1.43-3.96.04-.1.23-.15.52-.32-.05 1.43-.14 2.77-.14 4.11-.02 2.47.5 3.18 2.93 3.93 1.34.42 2.7.73 4.05 1.47l-4.5.16c-2.64.12-3.05.45-3.83 3-.2.68-.33 1.37-.52 2.05-.14.51-.32 1-.89 1.5-.06-1.65-.15-3.3-.18-4.95-.03-1.28-.59-2.14-1.8-2.55-1.72-.59-3.44-1.16-5.16-1.73l.08-.46M675.12 1189.37c1.49.43 2.96.92 4.46 1.26 2.04.46 2.7.15 3.86-1.61.76-1.18 1.52-2.36 2.3-3.54.06-.09.25-.09.57-.19-.38 1.39-.77 2.67-1.08 3.97-.57 2.4-.23 3.21 1.96 4.5 1.21.71 2.47 1.33 3.6 2.35-1.47-.29-2.93-.59-4.4-.86-2.6-.49-3.09-.27-4.42 2.04-.35.61-.64 1.26-.97 1.88-.25.46-.54.9-1.21 1.26.3-1.63.6-3.26.95-4.87.27-1.25-.08-2.22-1.18-2.9l-4.62-2.85.18-.44M955.43 1136.51c1.87-.27 3.75-.47 5.6-.84 2.5-.52 3.06-1.19 3.47-3.73.26-1.69.5-3.38.77-5.08.03-.13.25-.23.55-.5.27 1.73.48 3.35.79 4.95.56 2.95 1.36 3.68 4.43 4.02 1.7.18 3.42.24 5.19.8-1.78.42-3.57.83-5.35 1.26-3.13.76-3.54 1.25-3.87 4.49-.08.85-.07 1.71-.13 2.56a3.43 3.43 0 0 1-.72 2.01c-.47-1.96-.95-3.92-1.38-5.89-.33-1.52-1.2-2.42-2.76-2.63l-6.58-.85v-.57M1094.27 1148.98c1.48-.4 3-.73 4.46-1.21 2-.66 2.4-1.27 2.48-3.37.06-1.4.1-2.81.15-4.21.01-.11.18-.21.4-.47.39 1.39.71 2.69 1.12 3.97.74 2.35 1.45 2.86 3.99 2.84 1.41-.01 2.8-.12 4.3.17l-4.23 1.53c-2.48.92-2.77 1.35-2.72 4.02 0 .71.1 1.41.12 2.11.03.53 0 1.05-.39 1.7-.56-1.55-1.15-3.1-1.68-4.66-.41-1.21-1.22-1.86-2.5-1.89l-5.44-.07-.06-.46M819.97 1192.89c1.53-.22 3.07-.38 4.58-.69 2.06-.42 2.53-.98 2.86-3.05.22-1.39.41-2.78.64-4.17.02-.11.2-.19.44-.42.23 1.42.4 2.75.65 4.07.47 2.42 1.12 3.02 3.64 3.29 1.4.15 2.8.2 4.25.66l-4.38 1.03c-2.56.63-2.9 1.02-3.18 3.68-.07.7-.06 1.41-.1 2.11a2.8 2.8 0 0 1-.6 1.64c-.38-1.61-.78-3.21-1.13-4.83-.27-1.24-1-1.98-2.26-2.15l-5.4-.7v-.47M627.12 1140.33c1.51-.93 3.07-1.78 4.53-2.79 1.98-1.37 2.22-2.16 1.63-4.51l-1.19-4.69c-.03-.12.12-.29.28-.64.88 1.41 1.66 2.73 2.52 4 1.58 2.36 2.53 2.69 5.32 1.85 1.54-.47 3.04-1.05 4.79-1.21-1.4 1.01-2.78 2.02-4.16 3.05-2.44 1.82-2.62 2.39-1.7 5.32.24.76.56 1.51.82 2.27.2.57.34 1.17.12 2-1.13-1.52-2.27-3.04-3.37-4.59-.85-1.19-1.94-1.65-3.35-1.26l-6.02 1.69-.22-.49M377.67 1179.24c1.53-.23 3.07-.39 4.58-.7 2.06-.41 2.52-.97 2.85-3.05l.64-4.17c.02-.1.2-.19.45-.41.22 1.42.4 2.75.65 4.06.46 2.42 1.11 3.02 3.64 3.3 1.4.14 2.8.19 4.25.66-1.46.34-2.93.67-4.38 1.02-2.57.63-2.92 1.03-3.18 3.68-.07.7-.06 1.41-.11 2.12a2.78 2.78 0 0 1-.6 1.64c-.37-1.61-.77-3.22-1.13-4.83-.26-1.25-.98-1.99-2.25-2.16l-5.4-.7v-.46M288.7 1139.26c2.8.01 5.62.15 8.42 0 3.8-.2 4.79-1.07 5.94-4.72.78-2.43 1.5-4.88 2.29-7.31.06-.19.4-.29.91-.62.02 2.61-.03 5.05.06 7.48.18 4.48 1.19 5.72 5.65 6.9 2.46.64 4.97 1.11 7.45 2.34-2.71.22-5.43.42-8.14.66-4.79.42-5.52 1.05-6.7 5.75-.32 1.24-.5 2.51-.78 3.76a5.05 5.05 0 0 1-1.5 2.79c-.26-2.99-.54-5.99-.73-8.98-.15-2.32-1.24-3.84-3.48-4.49-3.16-.92-6.33-1.82-9.5-2.72l.1-.84M530.83 1188.05c2.73.5 5.43 1.11 8.18 1.46 3.72.46 4.83-.22 6.58-3.55 1.17-2.23 2.3-4.48 3.48-6.7.09-.18.44-.21.99-.45-.43 2.54-.9 4.89-1.23 7.27-.6 4.37.16 5.76 4.3 7.67 2.27 1.05 4.62 1.94 6.82 3.56-2.67-.26-5.34-.53-8.02-.76-4.71-.42-5.53.06-7.5 4.42-.52 1.15-.9 2.35-1.4 3.51-.37.87-.82 1.7-1.95 2.45.28-2.95.53-5.9.85-8.84.26-2.28-.54-3.94-2.6-4.96-2.9-1.44-5.83-2.86-8.75-4.28l.25-.8M766.61 1136.03c2.13-.22 4.28-.35 6.4-.7 2.86-.46 3.54-1.2 4.12-4.07.4-1.91.74-3.83 1.13-5.74.03-.15.29-.25.64-.55.23 1.99.4 3.84.67 5.67.5 3.39 1.37 4.25 4.85 4.78 1.93.29 3.86.44 5.85 1.16-2.04.39-4.09.77-6.13 1.18-3.6.71-4.1 1.24-4.6 4.92-.15.96-.17 1.94-.3 2.91a3.84 3.84 0 0 1-.9 2.24c-.44-2.25-.9-4.49-1.3-6.75-.3-1.75-1.25-2.82-3-3.12l-7.44-1.29.01-.64M919.52 1182.3c2.85.02 5.71.17 8.56.04 3.87-.19 4.88-1.07 6.07-4.78.8-2.47 1.55-4.95 2.36-7.42.06-.19.4-.29.92-.63.01 2.65-.05 5.13.04 7.6.16 4.56 1.18 5.83 5.71 7.05 2.5.66 5.05 1.15 7.57 2.41-2.76.21-5.52.4-8.29.64-4.86.41-5.6 1.04-6.84 5.81-.32 1.26-.51 2.56-.8 3.82a5.17 5.17 0 0 1-1.54 2.84c-.24-3.05-.52-6.09-.7-9.14-.15-2.36-1.25-3.91-3.52-4.58-3.21-.95-6.44-1.87-9.65-2.81l.11-.85" fill="#E5E9EC"/><path d="M301.32 1107.36h189.35a13.87 13.87 0 0 0-13.38-10.3H314.7a13.87 13.87 0 0 0-13.38 10.3Zm193.37 17.3H297.3a13.77 13.77 0 0 1-13.75-13.75 31.2 31.2 0 0 1 31.15-31.15H477.3a31.19 31.19 0 0 1 31.15 31.15c0 7.58-6.17 13.75-13.75 13.75ZM1164.05 918.81a8.57 8.57 0 0 1-4.06-1.02c-63.22-33.63-147.29-3.92-148.13-3.6a8.65 8.65 0 0 1-5.9-16.28c3.74-1.35 92.07-32.69 162.15 4.61a8.66 8.66 0 0 1-4.06 16.3Z" fill="#371A45"/><path d="M462.11 624.46c.21-1.62.38-3.2.5-4.78l-4.57-.55 4.07 5.33Zm-115.62 39.33 14.1-19.17c-1.57.13-3.1.4-4.53.8-9.12 2.5-16.52 7.85-23.04 13.98l13.47 4.39Zm50.21-4.62c2.5 0 4.86.85 6.84 2.47a10.94 10.94 0 0 1 4.11 8.68 11.4 11.4 0 0 1-4.65 8.87l-18.45 14.14-11.58 8.87c21.45-6.58 37.55-13.19 51.85-21.26 7.07-4 12.48-7.85 17.02-12.14 5.5-5.24 10.01-11.83 13.73-20.12-.95-1.2-1.89-2.43-2.83-3.67l-1.79-2.33a4990.98 4990.98 0 0 0-18.18-23.72 67.26 67.26 0 0 0-14.96 3.97c-7.36 2.84-14.21 7.57-22.23 15.31-7.4 7.1-14.06 14.8-19.79 22.9a977.92 977.92 0 0 0-14.98 21.97l-.83 1.23 9.8-7.5c6.6-5.08 13.22-10.13 19.85-15.19a11.7 11.7 0 0 1 7.07-2.48Zm-5.63 76.01a68.68 68.68 0 0 0 12.2-9.32c4.9-4.83 7.97-9.47 9.6-14.57l-22.57 8.77.77 15.13Zm-10.41 28.77c-5.93 0-10.49-4.65-10.82-11.06-.41-7.34-.76-14.72-1.12-22.1l-.23-4.79h-.3c-4.77 0-7.63-2.9-9.58-5.41a951.32 951.32 0 0 1-3.56-4.64c-1.04.8-2.08 1.57-3.13 2.33a10.86 10.86 0 0 1-6.35 2.1c-2 0-3.96-.56-5.81-1.68a10.37 10.37 0 0 1-4.85-11.9 13.7 13.7 0 0 1 3.91-6.15c.9-.82 1.83-1.58 2.76-2.3l-1.72-2.25-.31-.43-.3-.41c-3.5-3.7-4.84-7.85-3.98-11.92l-24.76-8c-4.06-1.38-6.93-4.2-7.94-7.76-1-3.53-.02-7.4 2.66-10.6 6.45-7.74 15.32-17.57 26.75-24.76 10.43-6.55 20.55-9.73 30.96-9.73.76 0 1.53.01 2.3.05 4.66.23 8.74 1.07 12.44 2.52l1.68-1.6a171.4 171.4 0 0 1 10.72-9.63c12.75-10.26 27.83-16.02 46.1-17.6 3.01-.26 6.1-.4 9.14-.4 9.43 0 19.12 1.27 28.8 3.77 1.44.37 2.74.9 3.9 1.36.48.19.97.39 1.46.56.97.35 1.8.95 2.44 1.75.27.35 1.21 1.6 1.43 1.87.54.69.92 1.5 1.08 2.36 1.2 6.23.53 12.1-.12 17.76l-.1.84c-1.8 16-6.68 30.48-14.48 43.02a77.94 77.94 0 0 1-23.75 24.5c-2.12 1.37-4.25 2.69-6.38 4a543.8 543.8 0 0 0-3.84 2.39c1.36 12.8-2.61 24.67-12.08 36.28-6.4 7.82-14.7 14.42-25.37 20.23a249.7 249.7 0 0 1-12.15 6.13c-1.8.86-3.67 1.3-5.5 1.3" fill="#fff"/><path d="M465.16 637.45c-6.37-8.35-12.59-16.46-18.82-24.62.01-.18.07-.4.09-.6 7.26.87 14.53 1.76 21.87 2.63a99.67 99.67 0 0 1-3.14 22.59Zm-3.82 11.65c-3.77 8.9-8.71 16.97-15.75 23.67-5.43 5.14-11.6 9.27-18.08 12.93-17.6 9.93-36.47 16.8-55.76 22.58-.94.27-1.51.22-2.14-.64-1.34-1.92-2.85-3.76-4.28-5.65-.1-.1-.12-.28-.26-.62.5-.4 1.02-.78 1.55-1.19 11-8.45 22.07-16.88 33.08-25.34 3.18-2.42 3.32-6.57.37-8.96-2.06-1.69-4.77-1.66-7.14.12-6.62 5.05-13.23 10.11-19.84 15.18-4.92 3.76-9.81 7.52-14.93 11.45-1.76-2.3-3.46-4.4-4.98-6.6-.26-.4 0-1.39.36-1.88 5.87-8.75 11.68-17.55 17.78-26.16a163.86 163.86 0 0 1 20.47-23.67c7.08-6.85 14.75-12.89 24.03-16.48a71.53 71.53 0 0 1 18.43-4.57c.58-.09 1.4.5 1.82 1.02 6.45 8.34 12.82 16.68 19.2 25.05 1.92 2.49 3.81 5.03 5.79 7.49.58.74.66 1.37.28 2.27Zm-43.2 63.63c-2.1 6.72-6.11 12.18-11.05 17.05-6.15 6-13.3 10.46-21.04 14.53-.47-9.5-.94-18.8-1.42-27.91l34.63-13.45c.45 3.16-.1 6.52-1.11 9.78Zm-69.59-42.52-25.66-8.36c9.1-9.68 18.74-18.13 31.72-21.7 5.6-1.54 12.08-1.4 15.9.15-7.26 9.91-14.54 19.83-21.96 29.91Zm130.23-44.73c.64-5.59 1.38-11.25.29-16.94-.5-.62-.94-1.25-1.43-1.87-1.63-.58-3.2-1.35-4.88-1.77a106.89 106.89 0 0 0-36.12-3.22c-15.94 1.37-30.56 6.29-43.14 16.42-4.55 3.65-8.7 7.78-12.95 11.78-1.14 1.09-2.02 1.54-3.62.8a32.6 32.6 0 0 0-11.94-2.68c-11.05-.5-20.9 3.07-30.1 8.85-9.96 6.27-18 14.66-25.48 23.64-3.18 3.8-1.94 8.05 2.8 9.65l8.97 2.91 21.47 6.94c-.02.22 0 .34-.03.44-.06.15-.13.3-.22.44-2.98 3.84-2.26 7.39.89 10.71.33.38.62.81.92 1.22 1.64 2.16 3.33 4.35 5.07 6.6-2.38 1.85-4.72 3.4-6.79 5.3a8.42 8.42 0 0 0-2.36 3.7c-.68 2.2.47 4.47 2.44 5.63a5.27 5.27 0 0 0 6.18-.2c2.45-1.75 4.8-3.65 7.31-5.57 2.38 3.13 4.61 6.07 6.86 8.99 2.58 3.32 4.36 3.88 8.35 2.78.73-.23 1.45-.39 2.3-.6l.17 2.19c.5 10.34.98 20.68 1.55 30.99.26 4.89 4.12 7.2 8.53 5.1 3.99-1.88 7.97-3.87 11.88-5.99 9-4.9 17.2-10.9 23.74-18.87 8.18-10.04 12.71-21.26 10.59-34.5-.09-.52.34-1.41.8-1.69 4.02-2.58 8.14-5 12.16-7.61a72.36 72.36 0 0 0 22.1-22.8c7.76-12.5 12.04-26.2 13.69-40.77" fill="#371A45"/><path d="M441.74 659.57a19.06 19.06 0 0 1-26.65-3.51 19.01 19.01 0 0 1 3.58-26.61c8.19-6.3 20.1-4.68 26.48 3.62 6.31 8.23 4.78 20.31-3.4 26.5Zm19.32-12.74c-1.98-2.46-3.87-5-5.79-7.48a4736.47 4736.47 0 0 0-19.2-25.06c-.41-.53-1.24-1.1-1.82-1.02a71.53 71.53 0 0 0-18.43 4.57c-9.28 3.6-16.95 9.64-24.03 16.48A163.7 163.7 0 0 0 371.33 658c-6.11 8.6-11.93 17.4-17.8 26.16-.35.5-.61 1.49-.35 1.88 1.52 2.2 3.21 4.3 4.98 6.6l14.93-11.45c6.61-5.07 13.22-10.13 19.84-15.18 2.37-1.78 5.08-1.8 7.14-.12 2.94 2.4 2.8 6.55-.37 8.96-11.01 8.47-22.07 16.9-33.08 25.34-.54.41-1.06.8-1.55 1.2.14.33.17.51.26.61 1.43 1.9 2.94 3.74 4.28 5.65.62.86 1.2.91 2.14.64 19.29-5.79 38.15-12.64 55.75-22.58 6.49-3.66 12.66-7.79 18.09-12.93 7.04-6.7 11.98-14.78 15.75-23.66.38-.9.3-1.53-.28-2.28Z" fill="#fff"/><path d="M465.16 637.44c-6.37-8.33-12.6-16.45-18.82-24.6l.09-.62c7.25.89 14.53 1.77 21.88 2.65a99.87 99.87 0 0 1-3.15 22.57M370.53 640.3l-21.97 29.92-25.67-8.37c9.11-9.69 18.75-18.14 31.72-21.7 5.6-1.55 12.08-1.41 15.92.15M407.08 729.78c-6.14 5.99-13.3 10.46-21.03 14.53l-1.41-27.91 34.64-13.46c.44 3.17-.12 6.52-1.13 9.8-2.1 6.72-6.11 12.17-11.07 17.04" fill="#DB2C2C"/><path d="M436.07 652.57a10.04 10.04 0 0 1-13.84-1.89 10.06 10.06 0 0 1 2.05-14.21 10.06 10.06 0 0 1 13.84 2 10.03 10.03 0 0 1-2.05 14.1Zm9.08-19.51c-6.37-8.3-18.29-9.92-26.47-3.62a19 19 0 0 0-3.58 26.61 19.06 19.06 0 0 0 26.64 3.51c8.19-6.18 9.73-18.26 3.41-26.5" fill="#371A45"/><path d="M436.06 652.57a10.04 10.04 0 0 1-13.85-1.9 10.06 10.06 0 0 1 2.06-14.2 10.06 10.06 0 0 1 13.84 2 10.02 10.02 0 0 1-2.05 14.1" fill="#22A7F0"/><path d="M305.39 169.45a99.76 99.76 0 0 0 20.45-60.65c0-55.34-44.86-100.2-100.2-100.2-55.35 0-100.22 44.86-100.22 100.2 0 55.35 44.87 100.21 100.21 100.21 15.4 0 29.98-3.48 43-9.68l45.08 15.08-8.32-44.96" fill="#fff"/><path d="M313.1 79.16a100.16 100.16 0 0 0-87.47-51.29c-37.58 0-70.32 20.69-87.47 51.29 12.38-36.42 46.92-62.7 87.47-62.7s75.09 26.28 87.47 62.7" fill="#fff"/><path d="M268.64 191.46c.84 0 1.68.14 2.5.4l32.41 10.86-5.9-31.84a7.86 7.86 0 0 1 1.48-6.2 91.48 91.48 0 0 0 18.85-55.88c0-50.92-41.43-92.35-92.35-92.35-50.92 0-92.34 41.43-92.34 92.35 0 50.92 41.42 92.35 92.34 92.35 13.86 0 27.2-3 39.63-8.93a7.9 7.9 0 0 1 3.38-.76Zm45.07 30.8c-.84 0-1.68-.12-2.5-.4l-42.12-14.1a107.26 107.26 0 0 1-43.46 9.12c-59.59 0-108.07-48.49-108.07-108.08C117.56 49.2 166.04.73 225.63.73 285.23.73 333.7 49.2 333.7 108.8a107 107 0 0 1-19.96 62.57l7.7 41.61a7.86 7.86 0 0 1-7.73 9.29" fill="#371A45"/><path d="m303.55 202.72-32.42-10.85a7.9 7.9 0 0 0-5.87.36 91.53 91.53 0 0 1-39.63 8.92c-48.02 0-87.6-36.84-91.95-83.75a115.43 115.43 0 0 0 67.64 64.56 115.36 115.36 0 0 0 96.82-8.46l5.4 29.22" fill="#B9AFBE"/><path d="m313.7 214.4-45.06-15.08a99.7 99.7 0 0 1-43 9.69c-55.35 0-100.22-44.87-100.22-100.21 0-5.26.42-10.44 1.2-15.49a116.19 116.19 0 0 0 7.06 24.09c4.35 46.9 43.93 83.75 91.95 83.75 13.86 0 27.2-3 39.63-8.92a7.86 7.86 0 0 1 5.87-.36l32.42 10.85-5.41-29.22c2.7-1.54 5.33-3.2 7.9-4.94l-.65.9 8.32 44.95" fill="#371A45"/><path d="M257.5 80.67c-8.66-8.67-22.72-7.11-31.4 1.55l-1.35 1.36-1.34-1.36C214.74 73.56 200.67 72 192 80.67a22.22 22.22 0 0 0 0 31.41l1.35 1.35 27.27 27.26a5.85 5.85 0 0 0 8.28 0l27.26-27.26 1.35-1.35a22.2 22.2 0 0 0 0-31.4Z" fill="#FF0068"/></svg>